<?xml version="1.0" encoding="UTF-8" standalone="no"?>
<!-- Created with Inkscape (http://www.inkscape.org/) -->

<svg
   xmlns:dc="http://purl.org/dc/elements/1.1/"
   xmlns:cc="http://creativecommons.org/ns#"
   xmlns:rdf="http://www.w3.org/1999/02/22-rdf-syntax-ns#"
   xmlns:svg="http://www.w3.org/2000/svg"
   xmlns="http://www.w3.org/2000/svg"
   xmlns:sodipodi="http://sodipodi.sourceforge.net/DTD/sodipodi-0.dtd"
   xmlns:inkscape="http://www.inkscape.org/namespaces/inkscape"
   version="1.1"
   id="svg2"
   xml:space="preserve"
   width="355.05426"
   height="353.84119"
   viewBox="0 0 355.05423 353.84117"
   sodipodi:docname="bordures_1.svg"
   inkscape:version="0.92.3 (2405546, 2018-03-11)"><metadata
     id="metadata8"><rdf:RDF><cc:Work
         rdf:about=""><dc:format>image/svg+xml</dc:format><dc:type
           rdf:resource="http://purl.org/dc/dcmitype/StillImage" /><dc:title /></cc:Work></rdf:RDF></metadata><defs
     id="defs6"><clipPath
       clipPathUnits="userSpaceOnUse"
       id="clipPath20"><path
         d="M 0,800 H 800 V 0 H 0 Z"
         id="path18"
         inkscape:connector-curvature="0" /></clipPath><clipPath
       clipPathUnits="userSpaceOnUse"
       id="clipPath108"><path
         d="M 0,800 H 800 V 0 H 0 Z"
         id="path106"
         inkscape:connector-curvature="0" /></clipPath><clipPath
       clipPathUnits="userSpaceOnUse"
       id="clipPath260"><path
         d="M 0,800 H 800 V 0 H 0 Z"
         id="path258"
         inkscape:connector-curvature="0" /></clipPath></defs><sodipodi:namedview
     pagecolor="#ffffff"
     bordercolor="#666666"
     borderopacity="1"
     objecttolerance="10"
     gridtolerance="10"
     guidetolerance="10"
     inkscape:pageopacity="0"
     inkscape:pageshadow="2"
     inkscape:window-width="1280"
     inkscape:window-height="751"
     id="namedview4"
     showgrid="false"
     inkscape:zoom="1.7699999"
     inkscape:cx="-16.747319"
     inkscape:cy="227.32478"
     inkscape:window-x="0"
     inkscape:window-y="0"
     inkscape:window-maximized="1"
     inkscape:current-layer="g16"
     fit-margin-top="0"
     fit-margin-left="0"
     fit-margin-right="0"
     fit-margin-bottom="0" /><g
     id="g10"
     inkscape:groupmode="layer"
     inkscape:label="56307-O8IRZ8-709"
     transform="matrix(1.3333333,0,0,-1.3333333,-688.92261,377.1887)"><g
       clip-path="url(#clipPath20)"
       id="g16"><path
         style="fill:#999999;fill-opacity:1;fill-rule:nonzero;stroke:none;stroke-width:1.33333325"
         d="m 30.693359,28.777344 c -1.08,0 -2,0.916 -2,2 V 81.085938 140.2832 c -0.0173,0.16666 -0.01698,0.32147 -9.77e-4,0.4668 v 134.07031 c -2.82533,-5.06533 -7.429464,-8.71234 -14.174804,-8.65234 -9.4839999,0.084 -17.5463436,10.18017 -13.4023436,19.35351 4.54,10.052 20.2480486,8.96547 20.8867186,-2.89453 0.13867,-2.572 -3.86133,-2.564 -4,0 -0.332,6.18 -7.612564,7.64719 -11.6152342,3.64453 -3.8613301,-3.86134 -2.5480957,-10.33014 1.3652343,-13.63281 3.9106699,-3.30133 9.9372359,-3.22195 14.0039059,-0.22461 4.19733,3.09199 5.587672,8.35258 6.263672,13.25391 3.03066,21.976 -6.833377,44.20715 -22.2480466,59.53515 -0.92133,0.91601 -0.6600763,2.08763 0.058594,2.79297 0.70667,0.716 1.8681913,0.96912 2.7695313,0.0371 C 21.614269,334.57053 39.998172,325.69759 58.826172,325.29492 h 0.892578 c 2.47066,-0.0173 4.945979,0.093 7.417969,0.37696 4.924,0.568 10.259467,1.68411 13.716797,5.55078 3.324,3.71733 4.044515,9.66343 1.228515,13.88476 -2.89067,4.33334 -9.403517,6.42507 -13.742187,2.92774 -4.63733,-3.73867 -3.586422,-11.83541 3.017578,-12.19141 2.56,-0.13866 2.576,-4.13866 0,-4 -10.252,0.552 -13.105766,13.11263 -5.509766,19.2793 7.76,6.3 19.526986,0.63408 21.597656,-8.53125 1.684001,-7.448 -2.061482,-13.70754 -7.882812,-17.29688 H 81 275.71875 c -4.78534,2.73334 -8.24278,7.08944 -8.41211,13.55078 -0.25067,9.524 9.62008,17.86074 18.94141,14.05274 10.38667,-4.244 9.58853,-20.40402 -2.49414,-21.05469 -2.572,-0.13866 -2.564,3.86134 0,4 6.60267,0.35467 7.6549,8.45141 3.01757,12.19141 -4.33867,3.49733 -10.85151,1.40426 -13.74218,-2.92774 -2.816,-4.22133 -2.09549,-10.16609 1.22851,-13.88476 3.45733,-3.86533 8.7928,-4.98278 13.7168,-5.55078 2.472,-0.28535 4.94731,-0.39429 7.41797,-0.37696 h 0.89258 c 18.828,0.40267 37.21196,9.27561 50.22656,22.73828 0.9,0.932 2.06283,0.67888 2.76953,-0.0371 0.7186,-0.70534 0.98049,-1.87696 0.0586,-2.79297 -15.4146,-15.328 -25.2787,-37.55782 -22.24804,-59.53515 0.65467,-4.75067 1.94874,-9.72786 5.83008,-12.89453 3.90405,-3.18533 9.86205,-3.56924 13.94335,-0.50391 4.1387,3.10934 5.84519,9.56945 2.14649,13.68945 -3.8786,4.32 -11.55834,3.06663 -11.90234,-3.33203 -0.13871,-2.56 -4.13871,-2.576 -4,0 0.5386,10.012 12.69683,13.12304 19.01953,5.84571 6.4693,-7.44667 1.41365,-19.0577 -7.40235,-21.70704 -7.66,-2.30267 -14.54398,1.65086 -18.30664,7.85352 v -1.63476 L 326.39062,140.75 c 0.016,-0.14533 0.0187,-0.30075 0,-0.46875 V 129.53516 49.285156 30.777344 c 0,-1.08134 -0.91599,-2 -2,-2 h -50.31054 -59.6211 c -0.16667,-0.0187 -0.32342,-0.0173 -0.46875,0 H 141.0957 c -0.14533,-0.016 -0.30075,-0.0187 -0.46875,0 H 129.45312 49.201172 Z m 2,4 h 24.328125 c -3.056,2.13333 -5.423171,5.134935 -6.451172,9.072265 -0.74933,2.86934 -0.633371,5.837254 0.167969,8.558594 -1.63067,-0.552 -3.361,-0.830717 -5.125,-0.748047 -5.65734,0.26533 -10.034592,3.063014 -12.919922,7.152344 v -7.529297 z m 35.390625,0 h 4.921875 c 12.99733,1.368 25.574875,12.765479 39.046871,11.605468 10.752,-0.92666 18.07422,-10.457468 28.57422,-11.605468 h 73.83203 c 9.25867,1.012 15.93896,8.977545 24.9043,11.046875 9.44533,2.18133 18.45845,-1.746396 26.89844,-5.566407 7.76668,-3.51466 15.85237,-7.106236 24.48437,-4.628906 7.65867,2.19733 13.43708,10.683188 8.84375,18.367188 -2.752,4.60533 -9.49612,6.877404 -13.96679,3.302734 -4.648,-3.71733 -3.56572,-11.836736 3.01562,-12.191406 2.56,-0.13866 2.576,-4.13866 0,-4 -11.14133,0.6 -13.10153,14.975076 -4.04687,20.316406 3.25734,1.92133 6.71442,2.133641 9.84375,1.181641 -0.43866,1.79733 -0.50313,3.755512 -0.0937,5.826172 1.088,5.50534 6.11089,9.670484 11.74023,9.646484 5.644,-0.0227 9.68519,-4.544572 9.97852,-9.976563 0.13867,-2.57335 -3.86266,-2.56535 -4,0 -0.30933,5.741331 -6.81424,7.578761 -10.99024,4.21875 -3.848,-3.09866 -3.65076,-8.767044 -0.85742,-12.484374 5.66133,-7.536001 16.76394,-4.121485 20.33594,3.478515 1.016,2.16133 1.59646,4.300441 1.84179,6.425781 v 4.921875 c -1.368,12.996 -12.76742,25.574875 -11.60742,39.046871 0.92667,10.752 10.45942,18.07227 11.60742,28.57227 l 0.0293,164.50586 v 16.50781 H 274.11133 62.472656 c -1.444,-0.0493 -2.889267,-0.0493 -4.335937,0 h -8.939453 -16.50586 l 9.76e-4,-48.31054 V 140.2832 c 1.012,-9.25867 8.979145,-15.93896 11.049806,-24.90429 2.18134,-9.44667 -1.746407,-18.459064 -5.566407,-26.900394 -3.51467,-7.76534 -7.106236,-15.852375 -4.628906,-24.484375 2.19733,-7.65866 10.681857,-13.43708 18.367187,-8.84375 4.605331,2.752 6.877405,9.49809 3.302735,13.96875 -3.71733,4.648 -11.838076,3.563752 -12.191406,-3.017579 -0.13867,-2.56001 -4.13867,-2.57601 -4,0 0.6,11.141331 14.975076,13.101546 20.316406,4.046876 1.85467,-3.142671 2.112731,-6.470389 1.275391,-9.511719 1.88667,0.51733 3.956863,0.624123 6.158203,0.189453 5.50533,-1.088 9.672437,-6.110904 9.648437,-11.740234 -0.0227,-5.644001 -4.546515,-9.687139 -9.978516,-9.980469 -2.57333,-0.13867 -2.56533,3.86267 0,4 5.741331,0.30933 7.578751,6.816187 4.21875,10.992187 -3.09867,3.848 -8.767034,3.650752 -12.484374,0.857422 -7.536001,-5.66133 -4.119532,-16.763937 3.480468,-20.335937 2.16134,-1.016 4.299828,-1.597797 6.423828,-1.841797 z m 18.324219,0 h 42.820317 c -1.59866,0.872 -3.18135,1.80733 -4.77735,2.75 -5.888,3.476 -11.66553,5.779703 -18.63086,4.595703 -6.846668,-1.16533 -13.046777,-4.567043 -19.412107,-7.345703 z m 139.423827,0 h 42.99609 c -4.824,2.06933 -9.57066,4.488359 -14.5,6.068359 -7.88,2.52533 -14.80884,1.746783 -21.96484,-2.310547 -2.204,-1.24933 -4.34859,-2.565812 -6.53125,-3.757812 z m 72.0957,0 h 7.95508 16.50781 v 23.898437 c -2.13333,-3.05466 -5.13687,-5.421228 -9.07421,-6.449219 -2.98133,-0.77868 -6.06639,-0.621751 -8.87305,0.267579 0.48,-1.53466 0.71406,-3.152148 0.63672,-4.798829 -0.26533,-5.65733 -3.06435,-10.033968 -7.15235,-12.917968 z M 69.294922,65.640625 c -0.956333,0 -1.913245,0.364417 -2.642578,1.09375 -1.458667,1.458667 -1.458667,3.82649 0,5.285156 1.458666,1.458667 3.824536,1.458667 5.283203,0 1.458667,-1.458666 1.458667,-3.826489 0,-5.285156 -0.729333,-0.729333 -1.684292,-1.09375 -2.640625,-1.09375 z m 216.496098,0 c -0.95634,0 -1.91325,0.364417 -2.64258,1.09375 -1.45867,1.458667 -1.45867,3.82649 0,5.285156 1.45866,1.458667 3.82453,1.458667 5.2832,0 1.45867,-1.458666 1.45867,-3.826489 0,-5.285156 -0.72933,-0.729333 -1.68429,-1.09375 -2.64062,-1.09375 z M 32.693359,85.912109 c 2.07066,4.824 4.488973,9.57067 6.070313,14.500001 2.52533,7.88 1.746783,14.8108 -2.310547,21.9668 -1.24933,2.204 -2.566436,4.34662 -3.759766,6.52929 z M 322.39062,86.0625 v 42.82031 c -0.872,-1.59866 -1.80732,-3.17939 -2.75,-4.77539 -3.476,-5.888 -5.78166,-11.66553 -4.59765,-18.63086 1.16533,-6.846678 4.56898,-13.04872 7.34765,-19.41406 z M 42.365234,307.39258 c -0.956166,0 -1.912578,0.36441 -2.642578,1.09375 -1.458666,1.46 -1.458666,3.82453 0,5.2832 1.46,1.45867 3.824537,1.45867 5.283203,0 1.458667,-1.45867 1.458667,-3.8232 0,-5.2832 -0.729333,-0.72934 -1.684458,-1.09375 -2.640625,-1.09375 z m 270.355466,0 c -0.95616,0 -1.91258,0.36441 -2.64258,1.09375 -1.45866,1.46 -1.45866,3.82453 0,5.2832 1.46,1.45867 3.82454,1.45867 5.28321,0 1.45866,-1.45867 1.45866,-3.8232 0,-5.2832 -0.72934,-0.72934 -1.68446,-1.09375 -2.64063,-1.09375 z m 13.69922,8.67187 c 2.05466,6.052 4.83412,11.82375 8.2461,17.20508 -5.17064,-3.28 -10.72206,-5.97727 -16.49805,-7.97461 h 6.25195 c 1.08133,0 2,-0.916 2,-2 z m -297.728514,0.0937 v 7.13672 c 0,1.08134 0.916,2 2,2 h 6.390625 c -5.84267,2.00667 -11.433955,4.68438 -16.640625,7.98438 3.40534,-5.36933 6.20467,-11.12644 8.25,-17.1211 z"
         id="path24"
         transform="matrix(0.75000002,0,0,-0.75000002,516.69197,282.89153)"
         inkscape:connector-curvature="0"
         sodipodi:nodetypes="sscccccccccccccccccccccccccccccccccccccccccccccccccccccccsscccccccscccccccccccccccccccccccccccccccccccccccccccccccccccccccccccccccccccccccccccccsssssssccscsccccccccccsccscssccccscccssccssccc" /></g></g></svg>